HIERARCHY
ROOT Hips
{
  OFFSET 11.2666 35.419 -54.3259
  CHANNELS 6 Xposition Yposition Zposition Zrotation Xrotation Yrotation
  JOINT Spine
  {
    OFFSET 0 8.47295 0
    CHANNELS 6 Xposition Yposition Zposition Zrotation Xrotation Yrotation
    JOINT Head
    {
      OFFSET 0 13.8244 0
      CHANNELS 6 Xposition Yposition Zposition Zrotation Xrotation Yrotation
      End Site
      {
        OFFSET 0 4.52755 0
      }
    }
    JOINT LeftShoulder
    {
      OFFSET 0 9.96346 0
      CHANNELS 6 Xposition Yposition Zposition Zrotation Xrotation Yrotation
      JOINT LeftArm
      {
        OFFSET 7.30841 0 0
        CHANNELS 6 Xposition Yposition Zposition Zrotation Xrotation Yrotation
        JOINT LeftForeArm
        {
          OFFSET 10.7061 0 0
          CHANNELS 6 Xposition Yposition Zposition Zrotation Xrotation Yrotation
          JOINT LeftHand
          {
            OFFSET 8.49677 0 0
            CHANNELS 6 Xposition Yposition Zposition Zrotation Xrotation Yrotation
            JOINT LeftHandThumb1
            {
              OFFSET 0 0 0
              CHANNELS 6 Xposition Yposition Zposition Zrotation Xrotation Yrotation
              End Site
              {
                OFFSET 0 0 3.937
              }
            }
            JOINT LeftHand_End
            {
              OFFSET 3.937 0 0
              CHANNELS 6 Xposition Yposition Zposition Zrotation Xrotation Yrotation
              End Site
              {
                OFFSET 0 0 0
              }
            }
          }
        }
      }
    }
    JOINT RightShoulder
    {
      OFFSET 0 9.96346 0
      CHANNELS 6 Xposition Yposition Zposition Zrotation Xrotation Yrotation
      JOINT RightArm
      {
        OFFSET -7.30841 0 0
        CHANNELS 6 Xposition Yposition Zposition Zrotation Xrotation Yrotation
        JOINT RightForeArm
        {
          OFFSET -10.7061 0 0
          CHANNELS 6 Xposition Yposition Zposition Zrotation Xrotation Yrotation
          JOINT RightHand
          {
            OFFSET -8.49677 0 0
            CHANNELS 6 Xposition Yposition Zposition Zrotation Xrotation Yrotation
            JOINT RightHandThumb1
            {
              OFFSET 0 0 0
              CHANNELS 6 Xposition Yposition Zposition Zrotation Xrotation Yrotation
              End Site
              {
                OFFSET 0 0 3.937
              }
            }
            JOINT RightHand_End
            {
              OFFSET -3.937 0 0
              CHANNELS 6 Xposition Yposition Zposition Zrotation Xrotation Yrotation
              End Site
              {
                OFFSET 0 0 0
              }
            }
          }
        }
      }
    }
  }
  JOINT LeftUpLeg
  {
    OFFSET 4.03161 0 0
    CHANNELS 6 Xposition Yposition Zposition Zrotation Xrotation Yrotation
    JOINT LeftLeg
    {
      OFFSET 0 -16.7874 0
      CHANNELS 6 Xposition Yposition Zposition Zrotation Xrotation Yrotation
      JOINT LeftFoot
      {
        OFFSET 0 -15.4942 0
        CHANNELS 6 Xposition Yposition Zposition Zrotation Xrotation Yrotation
        JOINT LeftToeBase
        {
          OFFSET 0 -1.45131 5.41636
          CHANNELS 6 Xposition Yposition Zposition Zrotation Xrotation Yrotation
          End Site
          {
            OFFSET 0 0 2.95275
          }
        }
      }
    }
  }
  JOINT RightUpLeg
  {
    OFFSET -4.03161 0 0
    CHANNELS 6 Xposition Yposition Zposition Zrotation Xrotation Yrotation
    JOINT RightLeg
    {
      OFFSET 0 -16.7874 0
      CHANNELS 6 Xposition Yposition Zposition Zrotation Xrotation Yrotation
      JOINT RightFoot
      {
        OFFSET 0 -15.4942 0
        CHANNELS 6 Xposition Yposition Zposition Zrotation Xrotation Yrotation
        JOINT RightToeBase
        {
          OFFSET 0 -1.45131 5.41636
          CHANNELS 6 Xposition Yposition Zposition Zrotation Xrotation Yrotation
          End Site
          {
            OFFSET 0 0 2.95275
          }
        }
      }
    }
  }
}
MOTION
Frames:	4
Frame Time:	0.0333333
19.7676 33.1151 -36.1796 2.55798 2.37493 149.44 0 8.47295 0 0.545656 13.2862 13.7872 1.77636e-015 13.8244 -7.10543e-015 -17.541 -28.22 -0.773639 -1.77636e-015 9.96346 0 3.26632 7.69619 15.9311 7.30841 0 3.55271e-015 -87.6084 2.29035 5.51507 10.7061 8.88178e-016 0 -20.4128 -5.10759 -76.5465 8.49677 0 7.10543e-015 10.3908 -3.18055e-015 2.36999 0 0 0 0 1.59028e-015 -0 3.937 3.55271e-015 0 0 1.59028e-015 -0 -1.77636e-015 9.96346 0 -29.7568 0.699443 1.80274 -7.30841 7.10543e-015 0 92.0447 5.8518 13.7535 -10.7061 7.10543e-015 0 2.65959 -2.62715 45.3822 -8.49677 0 0 7.89546 -2.98177e-016 -6.60256 0 0 0 5.56597e-015 -1.98785e-015 -0 -3.937 0 0 5.56597e-015 -1.98785e-015 -0 4.03161 -3.55271e-015 -7.10543e-015 -9.27576 -23.1242 6.75376 -1.77636e-015 -16.7874 0 3.18055e-015 27.0204 -0 0 -15.4942 0 7.95654 -5.0442 8.9121 -1.77636e-015 -1.45131 5.41636 -2.52259e-015 -9.4305 -6.44826e-015 -4.03161 -7.10543e-015 0 -12.4526 10.1028 -9.66024 7.10543e-015 -16.7874 0 -2.73384e-014 58.2993 3.02632e-014 0 -15.4942 -8.88178e-016 17.6771 22.1406 -12.0361 0 -1.45131 5.41636 -3.48808e-015 -10.9446 -1.61974e-015 
20.7463 33.9224 -38.6549 3.41158 2.34367 151.901 0 8.47295 0 2.94235 12.6516 11.2461 1.77636e-015 13.8244 0 -17.8072 -24.6758 1.30794 -1.77636e-015 9.96346 0 1.16705 4.09757 13.7451 7.30841 0 0 -89.2395 -1.79368 -1.21431 10.7061 1.77636e-015 0 -23.1665 -7.20066 -73.6735 8.49677 -3.55271e-015 -7.10543e-015 16.9593 -3.18055e-015 0.0266663 0 0 0 3.18055e-015 4.77083e-015 -9.54166e-015 3.937 0 0 3.18055e-015 4.77083e-015 -9.54166e-015 -1.77636e-015 9.96346 0 -26.9497 2.50772 2.32257 -7.30841 0 7.10543e-015 91.4347 4.46148 11.0025 -10.7061 0 7.10543e-015 1.19096 -1.63936 36.0052 -8.49677 0 0 6.08501 -1.59028e-015 -5.68886 0 0 0 1.78906e-015 -7.95139e-016 3.18055e-015 -3.937 0 0 1.78906e-015 -7.95139e-016 3.18055e-015 4.03161 0 0 -9.90952 -15.7996 4.21041 -3.55271e-015 -16.7874 0 -2.95117e-015 23.1651 3.45947e-015 0 -15.4942 7.10543e-015 7.97185 -7.17769 8.97637 -1.77636e-015 -1.45131 5.41636 -4.24733e-016 -10.0984 -6.46121e-015 -4.03161 1.06581e-014 0 -10.8609 1.87238 -8.17209 7.10543e-015 -16.7874 0 -2.33148e-015 64.7105 1.48905e-014 0 -15.4942 8.88178e-016 16.0694 18.5996 -8.7943 0 -1.45131 5.41636 -6.16924e-016 -10.9772 -3.23983e-015 
21.7682 34.7192 -41.0612 4.83738 1.41518 154.303 0 8.47295 0 6.32538 10.8224 8.2184 5.32907e-015 13.8244 0 -17.8018 -20.6241 4.07236 5.32907e-015 9.96346 0 2.03044 -0.0128173 10.6951 7.30841 0 0 -89.3452 -0.15211 -4.70286 10.7061 0 7.10543e-015 -18.1635 -6.85544 -70.0071 8.49677 0 7.10543e-015 21.4164 -4.77083e-015 0.43474 0 0 0 2.64834e-031 4.77083e-015 -3.18055e-015 3.937 0 0 2.64834e-031 4.77083e-015 -3.18055e-015 5.32907e-015 9.96346 0 -22.0296 3.89173 2.70494 -7.30841 -7.10543e-015 0 88.45 1.74715 7.19253 -10.7061 0 0 -1.85439 3.38848 28.7128 -8.49677 -7.10543e-015 7.10543e-015 5.15216 -1.59028e-015 -4.98278 0 0 0 2.5842e-015 -7.95139e-016 3.18055e-015 -3.937 -7.10543e-015 0 2.5842e-015 -7.95139e-016 3.18055e-015 4.03161 -7.10543e-015 0 -8.74054 -7.93194 3.00969 0 -16.7874 7.10543e-015 -1.10901e-015 16.7223 -9.96299e-015 3.55271e-015 -15.4942 7.10543e-015 7.33459 -8.10583 7.60998 1.77636e-015 -1.45131 5.41636 -1.14301e-015 -10.4762 -0 -4.03161 -3.55271e-015 0 -7.66184 -6.30101 -6.86527 3.55271e-015 -16.7874 0 1.44006e-014 65.5693 -1.53801e-014 -3.55271e-015 -15.4942 1.77636e-015 14.3619 10.702 -8.85086 3.55271e-015 -1.45131 5.41636 -1.26872e-015 -11.2796 -6.4864e-015 
22.8304 35.256 -43.4432 6.40363 0.450656 157.993 0 8.47295 -7.10543e-015 9.49854 9.1257 3.35797 1.77636e-015 13.8244 7.10543e-015 -17.1708 -18.8791 6.11328 0 9.96346 7.10543e-015 3.92961 -3.19975 7.66232 7.30841 0 0 -86.3674 2.07408 -7.76161 10.7061 -3.55271e-015 0 -0.508079 -0.224088 -66.2007 8.49677 0 0 18.444 -1.39149e-015 -1.70922 0 0 0 -7.95139e-016 1.98785e-015 -3.18055e-015 3.937 0 0 -7.95139e-016 1.98785e-015 -3.18055e-015 0 9.96346 7.10543e-015 -16.0038 5.76594 1.57888 -7.30841 0 0 83.4219 -1.12084 3.36178 -10.7061 0 0 -2.5345 4.9536 27.1406 -8.49677 -7.10543e-015 -7.10543e-015 5.6553 -3.18055e-015 -3.86494 0 0 0 1.59028e-015 7.95139e-016 -0 -3.937 0 0 1.59028e-015 7.95139e-016 -0 4.03161 0 7.10543e-015 -6.99722 -0.307884 2.15616 0 -16.7874 0 -1.98785e-016 10.0711 -0 3.55271e-015 -15.4942 0 8.91953 -7.57602 5.36139 0 -1.45131 5.41636 7.95139e-016 -11.4715 -0 -4.03161 0 0 -4.31835 -13.1613 -6.31371 0 -16.7874 0 3.94092e-015 61.858 -1.34867e-014 0 -15.4942 3.55271e-015 11.4601 1.87857 -9.41708 -3.55271e-015 -1.45131 5.41636 5.72014e-015 -11.3941 -3.2445e-015 
